<svg width="26" height="26" viewBox="0 0 26 26" fill="none" xmlns="http://www.w3.org/2000/svg">
<path d="M5.41667 20.5833V5.41667V17.7125V15.4104V20.5833ZM5.41667 22.75C4.82083 22.75 4.31094 22.538 3.887 22.1141C3.46306 21.6901 3.25072 21.1799 3.25 20.5833V5.41667C3.25 4.82083 3.46233 4.31094 3.887 3.887C4.31167 3.46306 4.82156 3.25072 5.41667 3.25H20.5833C21.1792 3.25 21.6894 3.46233 22.1141 3.887C22.5387 4.31167 22.7507 4.82156 22.75 5.41667V14.0833H20.5833V5.41667H5.41667V20.5833H13V22.75H5.41667ZM18.7958 23.8333L14.95 19.9875L16.4937 18.4708L18.7958 20.7729L23.4 16.1688L24.9167 17.7125L18.7958 23.8333ZM8.66667 14.0833C8.97361 14.0833 9.23108 13.9793 9.43908 13.7713C9.64708 13.5633 9.75072 13.3062 9.75 13C9.74928 12.6938 9.64528 12.4367 9.438 12.2287C9.23072 12.0207 8.97361 11.9167 8.66667 11.9167C8.35972 11.9167 8.10261 12.0207 7.89533 12.2287C7.68806 12.4367 7.58406 12.6938 7.58333 13C7.58261 13.3062 7.68661 13.5637 7.89533 13.7724C8.10406 13.9811 8.36117 14.0848 8.66667 14.0833ZM8.66667 9.75C8.97361 9.75 9.23108 9.646 9.43908 9.438C9.64708 9.23 9.75072 8.97289 9.75 8.66667C9.74928 8.36044 9.64528 8.10333 9.438 7.89533C9.23072 7.68733 8.97361 7.58333 8.66667 7.58333C8.35972 7.58333 8.10261 7.68733 7.89533 7.89533C7.68806 8.10333 7.58406 8.36044 7.58333 8.66667C7.58261 8.97289 7.68661 9.23036 7.89533 9.43908C8.10406 9.64781 8.36117 9.75144 8.66667 9.75ZM11.9167 14.0833H18.4167V11.9167H11.9167V14.0833ZM11.9167 9.75H18.4167V7.58333H11.9167V9.75Z" fill="#3A3D40"/>
</svg>
