<svg width="24" height="24" viewBox="0 0 24 24" fill="none" xmlns="http://www.w3.org/2000/svg">
<path d="M15.6903 12.1169V15.5544M17.1218 12.1169V15.5544M20.6053 8.73788C20.5978 9.63538 20.6193 10.5344 20.5938 11.4314C20.5133 11.8854 20.0188 11.8864 19.6578 11.8674H5.7328C5.2328 11.8759 5.1453 11.3409 5.1868 10.9539C5.1938 10.1789 5.1723 9.40188 5.1978 8.62738C5.2783 8.17338 5.7728 8.17238 6.1338 8.19138H20.0588C20.2036 8.19177 20.3423 8.24949 20.4446 8.35191C20.5469 8.45433 20.605 8.5931 20.6053 8.73788Z" stroke="#3A3D40" stroke-width="0.5" stroke-linecap="round" stroke-linejoin="round"/>
<path d="M19.7601 12.4254C19.7531 13.3229 19.7751 14.2219 19.7491 15.1189C19.6686 15.5724 19.1741 15.5734 18.8131 15.5544H4.88807C4.38807 15.5634 4.30057 15.0284 4.34207 14.6409C4.34907 13.8659 4.32757 13.0889 4.35307 12.3149C4.43357 11.8609 4.92807 11.8599 5.28907 11.8789H19.2141C19.3588 11.8793 19.4974 11.9369 19.5997 12.0392C19.702 12.1415 19.7597 12.2807 19.7601 12.4254Z" stroke="#3A3D40" stroke-width="0.5" stroke-linecap="round" stroke-linejoin="round"/>
<path d="M18.035 16.1554C18.0255 16.8829 18.045 17.6119 18.017 18.3384C17.938 18.7819 17.4565 18.7934 17.101 18.7714L3.9465 18.7309C3.457 18.7389 3.359 18.2174 3.403 17.8349C3.412 17.2234 3.393 16.6099 3.42 15.9999C3.499 15.5564 3.9805 15.5449 4.336 15.5669L17.4905 15.6074C17.6353 15.6082 17.7738 15.6663 17.8759 15.769C17.9779 15.8717 18.0351 16.0106 18.035 16.1554Z" stroke="#3A3D40" stroke-width="0.5" stroke-linecap="round" stroke-linejoin="round"/>
<path d="M10.769 11.8783V15.5538M7.66745 11.8783V15.5538M8.10995 8.19128V11.8668M9.83295 8.19128V11.8668M9.18595 20.2633H14.6995M18.5289 19.3293C18.5219 19.9888 18.543 20.6493 18.518 21.3083C18.445 21.7348 17.985 21.7683 17.638 21.7438H5.90445C5.43345 21.7553 5.31395 21.2573 5.35795 20.8823C5.36495 20.3278 5.34395 19.7723 5.36895 19.2188C5.44195 18.7923 5.90195 18.7588 6.24845 18.7828H17.9834C18.1282 18.7832 18.2669 18.8409 18.3693 18.9433C18.4716 19.0457 18.5287 19.1845 18.5289 19.3293ZM17.5149 5.77078C17.5074 6.43028 17.529 7.09078 17.5035 7.74978C17.43 8.17628 16.9705 8.20978 16.6235 8.18528L4.88995 8.18378C4.41845 8.19478 4.29945 7.69728 4.34345 7.32178C4.35045 6.76728 4.32945 6.21178 4.35495 5.65828C4.42795 5.23178 4.88795 5.19828 5.23445 5.22278L16.969 5.22428C17.1137 5.22467 17.2524 5.28239 17.3548 5.38481C17.4571 5.48723 17.5147 5.626 17.5149 5.77078Z" stroke="#3A3D40" stroke-width="0.5" stroke-linecap="round" stroke-linejoin="round"/>
<path d="M18.6747 2.79496C18.6687 3.45446 18.6897 4.11546 18.6647 4.77396C18.5977 5.17746 18.1667 5.24046 17.8322 5.21046C14.1582 5.21046 10.4837 5.21896 6.81018 5.21496C6.39268 5.18646 6.27868 4.74596 6.31918 4.40046C6.32568 3.83146 6.30418 3.26046 6.32918 2.69296C6.39668 2.28946 6.82818 2.22646 7.16268 2.25646C10.8367 2.25596 14.5107 2.24796 18.1842 2.25146C18.3187 2.26541 18.4433 2.32866 18.5339 2.42901C18.6246 2.52936 18.6749 2.65972 18.6752 2.79496M8.17168 6.70396L13.6852 6.70446" stroke="#3A3D40" stroke-width="0.5" stroke-linecap="round" stroke-linejoin="round"/>
</svg>
