<svg width="24" height="24" viewBox="0 0 24 24" fill="none" xmlns="http://www.w3.org/2000/svg">
<path d="M6 20C6 20.5304 5.78929 21.0391 5.41421 21.4142C5.03914 21.7893 4.53043 22 4 22C3.46957 22 2.96086 21.7893 2.58579 21.4142C2.21071 21.0391 2 20.5304 2 20C2 19.4696 2.21071 18.9609 2.58579 18.5858C2.96086 18.2107 3.46957 18 4 18C4.53043 18 5.03914 18.2107 5.41421 18.5858C5.78929 18.9609 6 19.4696 6 20Z" stroke="#3A3D40" stroke-width="1.5" stroke-linecap="round" stroke-linejoin="round"/>
<path d="M14 6V10M10 12H8C6.114 12 5.172 12 4.586 12.586C4 13.172 4 14.114 4 16V18M10 12C10 10.345 10.345 10 12 10H16C17.655 10 18 10.345 18 12M10 12C10 13.655 10.345 14 12 14H16C17.655 14 18 13.655 18 12M6 20H10M10 20C10 18.345 10.345 18 12 18H16C17.655 18 18 18.345 18 20C18 21.655 17.655 22 16 22H12C10.345 22 10 21.655 10 20ZM18 4C18 2.345 17.655 2 16 2H12C10.345 2 10 2.345 10 4C10 5.655 10.345 6 12 6H16C17.655 6 18 5.655 18 4ZM18 4C19.886 4 20.828 4 21.414 4.586C22 5.172 22 6.114 22 8C22 9.886 22 10.828 21.414 11.414C20.828 12 19.886 12 18 12" stroke="#3A3D40" stroke-width="1.5" stroke-linecap="round" stroke-linejoin="round"/>
</svg>
