<svg width="68" height="28" viewBox="0 0 68 28" fill="none" xmlns="http://www.w3.org/2000/svg">
<circle cx="14" cy="14" r="14" fill="#3A3D40"/>
<path d="M12.7087 20.3038V14.7503H10.8398V12.5859H12.7087V10.9898C12.7087 9.13752 13.84 8.12891 15.4924 8.12891C16.2839 8.12891 16.9642 8.18784 17.1624 8.21417V10.1499L16.0164 10.1505C15.1178 10.1505 14.9438 10.5775 14.9438 11.2041V12.5859H17.087L16.8079 14.7503H14.9438V20.3038H12.7087Z" fill="white"/>
<circle cx="54" cy="14" r="14" fill="#3A3D40"/>
<path d="M54.0008 8.44721C55.8095 8.44721 56.0237 8.45398 56.7382 8.48656C57.1678 8.49182 57.5933 8.5707 57.9962 8.71979C58.2884 8.83248 58.5538 9.00511 58.7753 9.22656C58.9967 9.44802 59.1694 9.71339 59.282 10.0056C59.4311 10.4085 59.51 10.8341 59.5153 11.2637C59.5475 11.9782 59.5546 12.1924 59.5546 14.0011C59.5546 15.8098 59.5479 16.024 59.5153 16.7385C59.51 17.1681 59.4311 17.5936 59.282 17.9966C59.1694 18.2888 58.9967 18.5541 58.7753 18.7756C58.5538 18.997 58.2884 19.1697 57.9962 19.2824C57.5933 19.4315 57.1678 19.5103 56.7382 19.5156C56.024 19.5479 55.8098 19.5549 54.0008 19.5549C52.1917 19.5549 51.9775 19.5482 51.2633 19.5156C50.8337 19.5103 50.4082 19.4315 50.0053 19.2824C49.7131 19.1697 49.4477 18.997 49.2262 18.7756C49.0048 18.5541 48.8322 18.2888 48.7195 17.9966C48.5704 17.5936 48.4915 17.1681 48.4862 16.7385C48.454 16.024 48.4469 15.8098 48.4469 14.0011C48.4469 12.1924 48.4537 11.9782 48.4862 11.2637C48.4915 10.8341 48.5704 10.4085 48.7195 10.0056C48.8322 9.71339 49.0048 9.44802 49.2262 9.22656C49.4477 9.00511 49.7131 8.83248 50.0053 8.71979C50.4082 8.5707 50.8337 8.49182 51.2633 8.48656C51.9779 8.4543 52.192 8.44721 54.0008 8.44721ZM54.0008 7.22656C52.162 7.22656 51.9304 7.2343 51.2079 7.26721C50.6456 7.27839 50.0893 7.38485 49.5627 7.58205C49.1109 7.75226 48.7017 8.019 48.3637 8.36366C48.0187 8.70184 47.7517 9.11127 47.5814 9.56334C47.3842 10.09 47.2777 10.6463 47.2666 11.2085C47.2343 11.9304 47.2266 12.162 47.2266 14.0008C47.2266 15.8395 47.2343 16.0711 47.2672 16.7937C47.2784 17.3559 47.3848 17.9122 47.582 18.4388C47.7522 18.8908 48.0189 19.3002 48.3637 19.6385C48.7019 19.9832 49.1113 20.25 49.5633 20.4201C50.09 20.6173 50.6463 20.7238 51.2085 20.7349C51.9311 20.7672 52.1617 20.7756 54.0014 20.7756C55.8411 20.7756 56.0717 20.7679 56.7943 20.7349C57.3565 20.7238 57.9128 20.6173 58.4395 20.4201C58.8893 20.2457 59.2978 19.9794 59.6389 19.6381C59.98 19.2968 60.246 18.8882 60.4201 18.4382C60.6173 17.9115 60.7238 17.3553 60.735 16.793C60.7672 16.0711 60.775 15.8395 60.775 14.0008C60.775 12.162 60.7672 11.9304 60.7343 11.2079C60.7231 10.6456 60.6167 10.0893 60.4195 9.56269C60.2493 9.11068 59.9826 8.70126 59.6379 8.36301C59.2996 8.01828 58.8902 7.75153 58.4382 7.5814C57.9115 7.3842 57.3553 7.27775 56.793 7.26656C56.0711 7.2343 55.8395 7.22656 54.0008 7.22656Z" fill="white"/>
<path d="M54.0021 10.5234C53.3141 10.5234 52.6416 10.7275 52.0695 11.1097C51.4974 11.492 51.0515 12.0353 50.7882 12.6709C50.5249 13.3066 50.4561 14.006 50.5903 14.6808C50.7245 15.3556 51.0558 15.9755 51.5423 16.462C52.0288 16.9485 52.6487 17.2798 53.3235 17.414C53.9983 17.5482 54.6977 17.4794 55.3334 17.2161C55.969 16.9528 56.5123 16.5069 56.8946 15.9348C57.2768 15.3627 57.4809 14.6902 57.4809 14.0021C57.4809 13.0795 57.1144 12.1947 56.462 11.5423C55.8096 10.8899 54.9248 10.5234 54.0021 10.5234ZM54.0021 16.2602C53.5555 16.2602 53.119 16.1278 52.7476 15.8797C52.3763 15.6315 52.0869 15.2789 51.916 14.8663C51.7451 14.4537 51.7003 13.9996 51.7875 13.5616C51.8746 13.1236 52.0897 12.7213 52.4055 12.4055C52.7213 12.0897 53.1236 11.8746 53.5616 11.7875C53.9996 11.7003 54.4537 11.7451 54.8663 11.916C55.2789 12.0869 55.6315 12.3763 55.8797 12.7476C56.1278 13.119 56.2602 13.5555 56.2602 14.0021C56.2602 14.601 56.0223 15.1754 55.5988 15.5988C55.1754 16.0223 54.601 16.2602 54.0021 16.2602Z" fill="white"/>
<path d="M57.6176 11.1981C58.0665 11.1981 58.4305 10.8341 58.4305 10.3852C58.4305 9.93621 58.0665 9.57227 57.6176 9.57227C57.1686 9.57227 56.8047 9.93621 56.8047 10.3852C56.8047 10.8341 57.1686 11.1981 57.6176 11.1981Z" fill="white"/>
</svg>
